<svg width="104" height="80" viewBox="0 0 104 80" fill="none" xmlns="http://www.w3.org/2000/svg">
<circle cx="4" cy="4" r="4" fill="#F2F2F2"/>
<circle cx="4" cy="28" r="4" fill="#F2F2F2"/>
<circle cx="4" cy="52" r="4" fill="#F2F2F2"/>
<circle cx="4" cy="76" r="4" fill="#F2F2F2"/>
<circle cx="52" cy="4" r="4" fill="#F2F2F2"/>
<circle cx="52" cy="28" r="4" fill="#F2F2F2"/>
<circle cx="52" cy="52" r="4" fill="#F2F2F2"/>
<circle cx="52" cy="76" r="4" fill="#F2F2F2"/>
<circle cx="28" cy="4" r="4" fill="#F2F2F2"/>
<circle cx="28" cy="28" r="4" fill="#F2F2F2"/>
<circle cx="28" cy="52" r="4" fill="#F2F2F2"/>
<circle cx="28" cy="76" r="4" fill="#F2F2F2"/>
<circle cx="76" cy="4" r="4" fill="#F2F2F2"/>
<circle cx="76" cy="28" r="4" fill="#F2F2F2"/>
<circle cx="76" cy="52" r="4" fill="#F2F2F2"/>
<circle cx="76" cy="76" r="4" fill="#F2F2F2"/>
<circle cx="100" cy="4" r="4" fill="#F2F2F2"/>
<circle cx="100" cy="28" r="4" fill="#F2F2F2"/>
<circle cx="100" cy="52" r="4" fill="#F2F2F2"/>
<circle cx="100" cy="76" r="4" fill="#F2F2F2"/>
</svg>
