<svg xmlns="http://www.w3.org/2000/svg" width="120" height="64" viewBox="0 0 3870 1937" shape-rendering="geometricPrecision" text-rendering="geometricPrecision" image-rendering="optimizeQuality" fill-rule="evenodd" clip-rule="evenodd"><defs><style>.str0{stroke:#fff;stroke-width:12.0939}.fil4{fill:#2ca449}.fil4,.fil1{fill-rule:nonzero}.fil1{fill:#50b748}.fil2{fill:#7fc241}.fil2,.fil3{fill-rule:nonzero}.fil3{fill:#99ca3c}.fil0{fill:#b2d234}.fil0,.fil5{fill-rule:nonzero}.fil5{fill:#fff}</style></defs><g id="Слой_x0020_1"><path class="fil0" d="M3519 0h-490l-87 490h645L3870 0z"/><path class="fil1" d="M490 490l-86 491-87 490h491l86-490 87-491z"/><path class="fil2" d="M1471 490l-86 491-87 490h491l86-490 86-491z"/><path class="fil3" d="M2856 981l86-491h-490l-87 491-27 154c-33 186 92 336 277 336h799l283-490h-841z"/><path class="fil1" d="M490 490H0L283 0h294z"/><path class="fil4" d="M981 490H490L577 0h490z"/><path class="fil2" d="M1471 490H981l86-490h491z"/><path class="fil1" d="M1961 490h-490l87-490h490z"/><path class="fil3" d="M2452 490h-491l87-490h490z"/><path class="fil2" d="M2942 490h-490l27-154c33-185 210-336 396-336h154l-87 490z"/><path class="fil5 str0" d="M1422 1735h-68l2-14h152l-2 14h-69l-29 193h-15zM1535 1777h14l-7 43c15-27 42-47 71-45l-3 16h-1c-33 0-66 26-74 75l-9 62h-14l23-151zM1747 1871l3-17c-12-3-27-7-48-7-30 0-49 15-53 36-3 22 15 35 37 35 29 0 57-19 61-47zm-112 12c4-31 33-49 70-49 20 0 33 3 47 7l1-7c4-30-11-46-41-46-17 0-32 5-47 12l-3-12c17-8 33-13 53-13s34 5 43 16c8 10 11 24 8 43l-14 94h-13l3-25c-12 14-32 28-59 28s-53-16-48-48zM1846 1777h14l-4 28c12-18 31-32 57-32 36 0 53 26 48 63l-14 92h-14l14-90c4-31-9-51-38-51-28 0-54 22-58 54l-13 87h-14l22-151zM2009 1909l10-12c14 13 30 20 49 20s36-11 39-29c2-18-15-24-34-30-22-7-47-15-43-42 4-25 26-42 54-42 17 0 36 6 48 17l-9 12c-12-10-26-15-42-15-19 0-34 11-37 26-2 17 16 24 36 30 22 7 45 16 41 43s-29 44-56 44c-21 0-43-9-56-22zM2191 1889l15-99h-21l2-13h21l8-48h14l-8 48h51l-2 13h-51l-14 98c-4 21 7 29 24 29 7 0 13-2 22-5l-2 13c-8 4-15 6-24 6-23 0-39-13-35-42zM2431 1845c2-30-10-58-43-58-29 0-55 25-62 58h105zm-121 7c7-44 41-79 80-79 41 0 61 35 54 79 0 3 0 4-1 6h-119c-3 38 19 60 47 60 23 0 40-11 53-24l9 9c-18 17-37 28-64 28-38 0-66-31-59-79zM2530 1712h14l-33 216h-14zM2710 1845c2-30-10-58-43-58-29 0-55 25-62 58h105zm-121 7c7-44 41-79 80-79 41 0 61 35 54 79 0 3 0 4-1 6h-119c-3 38 19 60 47 60 23 0 40-11 53-24l9 9c-18 17-37 28-64 28-38 0-66-31-59-79zM2776 1852c6-43 44-79 85-79 27 0 43 13 53 28l-11 11c-10-14-23-25-44-25-32 0-63 29-68 65-6 37 16 66 49 66 21 0 38-12 52-26l9 10c-18 17-37 29-64 29-41 0-68-35-61-79zM3088 1852c5-36-17-65-50-65-32 0-63 29-68 65-6 37 16 66 49 66 32 0 63-30 69-66zm-133 0c6-42 43-79 86-79 42 0 68 36 62 79-7 43-44 79-87 79-42 0-68-36-61-79zM3178 1777h14l-4 27c12-16 27-31 53-31 25 0 38 15 44 33 11-17 29-33 56-33 35 0 52 25 46 63l-14 92h-13l13-90c5-32-8-51-35-51-24 0-48 19-53 53l-13 88h-14l13-91c5-31-8-50-34-50s-50 23-54 54l-13 87h-14l22-151z"/></g></svg>